<svg width="1440" height="8" viewBox="0 0 1440 8" fill="none" xmlns="http://www.w3.org/2000/svg">
<path opacity="0.08" d="M0 4H1440V5H0V4Z" fill="#3D3C3C"/>
<rect x="676" y="4" width="88" height="1" fill="white"/>
<path d="M688.5 0L689.562 3.05574H693L690.219 4.94426L691.281 8L688.5 6.11148L685.719 8L686.781 4.94426L684 3.05574H687.438L688.5 0Z" fill="#D9C287"/>
<path d="M704.5 0L705.562 3.05574H709L706.219 4.94426L707.281 8L704.5 6.11148L701.719 8L702.781 4.94426L700 3.05574H703.438L704.5 0Z" fill="#D9C287"/>
<path d="M720.5 0L721.562 3.05574H725L722.219 4.94426L723.281 8L720.5 6.11148L717.719 8L718.781 4.94426L716 3.05574H719.438L720.5 0Z" fill="#D9C287"/>
<path d="M736.5 0L737.562 3.05574H741L738.219 4.94426L739.281 8L736.5 6.11148L733.719 8L734.781 4.94426L732 3.05574H735.438L736.5 0Z" fill="#D9C287"/>
<path d="M752.5 0L753.562 3.05574H757L754.219 4.94426L755.281 8L752.5 6.11148L749.719 8L750.781 4.94426L748 3.05574H751.438L752.5 0Z" fill="#D9C287"/>
</svg>
