<svg width="88" height="8" viewBox="0 0 88 8" fill="none" xmlns="http://www.w3.org/2000/svg">
<rect y="4" width="88" height="1" fill="white"/>
<path d="M12.5 0L13.5623 3.05574H17L14.2188 4.94426L15.2812 8L12.5 6.11148L9.71882 8L10.7812 4.94426L8 3.05574H11.4377L12.5 0Z" fill="#D9C287"/>
<path d="M28.5 0L29.5623 3.05574H33L30.2188 4.94426L31.2812 8L28.5 6.11148L25.7188 8L26.7812 4.94426L24 3.05574H27.4377L28.5 0Z" fill="#D9C287"/>
<path d="M44.5 0L45.5623 3.05574H49L46.2188 4.94426L47.2812 8L44.5 6.11148L41.7188 8L42.7812 4.94426L40 3.05574H43.4377L44.5 0Z" fill="#D9C287"/>
<path d="M60.5 0L61.5623 3.05574H65L62.2188 4.94426L63.2812 8L60.5 6.11148L57.7188 8L58.7812 4.94426L56 3.05574H59.4377L60.5 0Z" fill="#D9C287"/>
<path d="M76.5 0L77.5623 3.05574H81L78.2188 4.94426L79.2812 8L76.5 6.11148L73.7188 8L74.7812 4.94426L72 3.05574H75.4377L76.5 0Z" fill="#D9C287"/>
</svg>
